<mxfile host="app.diagrams.net" modified="2023-11-27T16:07:34.739Z" agent="Mozilla/5.0 (Windows NT 10.0; Win64; x64; rv:120.0) Gecko/20100101 Firefox/120.0" etag="G3D8lnJ3bywrLmyaue18" version="22.1.4" type="device">
  <diagram name="Page-1" id="IkbIfc3ZSEhyI_R9io6r">
    <mxGraphModel dx="1658" dy="893" grid="1" gridSize="10" guides="1" tooltips="1" connect="1" arrows="1" fold="1" page="1" pageScale="1" pageWidth="850" pageHeight="1100" math="0" shadow="0">
      <root>
        <mxCell id="0" />
        <mxCell id="1" parent="0" />
        <mxCell id="bWetTXV1wiz5X9XQihTL-10" style="edgeStyle=orthogonalEdgeStyle;rounded=0;orthogonalLoop=1;jettySize=auto;html=1;exitX=1;exitY=0.5;exitDx=0;exitDy=0;entryX=0;entryY=0.5;entryDx=0;entryDy=0;" parent="1" source="bWetTXV1wiz5X9XQihTL-1" target="bWetTXV1wiz5X9XQihTL-5" edge="1">
          <mxGeometry relative="1" as="geometry" />
        </mxCell>
        <mxCell id="bWetTXV1wiz5X9XQihTL-1" value="LO1" style="rounded=0;whiteSpace=wrap;html=1;" parent="1" vertex="1">
          <mxGeometry x="40" y="360" width="80" height="40" as="geometry" />
        </mxCell>
        <mxCell id="bWetTXV1wiz5X9XQihTL-11" style="edgeStyle=orthogonalEdgeStyle;rounded=0;orthogonalLoop=1;jettySize=auto;html=1;exitX=1;exitY=0.5;exitDx=0;exitDy=0;" parent="1" source="bWetTXV1wiz5X9XQihTL-2" target="bWetTXV1wiz5X9XQihTL-6" edge="1">
          <mxGeometry relative="1" as="geometry" />
        </mxCell>
        <mxCell id="bWetTXV1wiz5X9XQihTL-2" value="LO2" style="rounded=0;whiteSpace=wrap;html=1;" parent="1" vertex="1">
          <mxGeometry x="40" y="480" width="80" height="40" as="geometry" />
        </mxCell>
        <mxCell id="bWetTXV1wiz5X9XQihTL-12" style="edgeStyle=orthogonalEdgeStyle;rounded=0;orthogonalLoop=1;jettySize=auto;html=1;exitX=1;exitY=0.5;exitDx=0;exitDy=0;entryX=0;entryY=0.5;entryDx=0;entryDy=0;" parent="1" source="bWetTXV1wiz5X9XQihTL-3" target="bWetTXV1wiz5X9XQihTL-7" edge="1">
          <mxGeometry relative="1" as="geometry" />
        </mxCell>
        <mxCell id="bWetTXV1wiz5X9XQihTL-3" value="LO3" style="rounded=0;whiteSpace=wrap;html=1;" parent="1" vertex="1">
          <mxGeometry x="40" y="600" width="80" height="40" as="geometry" />
        </mxCell>
        <mxCell id="bWetTXV1wiz5X9XQihTL-13" style="edgeStyle=orthogonalEdgeStyle;rounded=0;orthogonalLoop=1;jettySize=auto;html=1;exitX=1;exitY=0.5;exitDx=0;exitDy=0;" parent="1" source="bWetTXV1wiz5X9XQihTL-4" target="bWetTXV1wiz5X9XQihTL-8" edge="1">
          <mxGeometry relative="1" as="geometry" />
        </mxCell>
        <mxCell id="bWetTXV1wiz5X9XQihTL-4" value="LOn" style="rounded=0;whiteSpace=wrap;html=1;" parent="1" vertex="1">
          <mxGeometry x="40" y="770" width="80" height="40" as="geometry" />
        </mxCell>
        <mxCell id="bWetTXV1wiz5X9XQihTL-5" value="reports_1" style="ellipse;whiteSpace=wrap;html=1;" parent="1" vertex="1">
          <mxGeometry x="180" y="360" width="70" height="40" as="geometry" />
        </mxCell>
        <mxCell id="bWetTXV1wiz5X9XQihTL-6" value="reports_2" style="ellipse;whiteSpace=wrap;html=1;" parent="1" vertex="1">
          <mxGeometry x="180" y="480" width="70" height="40" as="geometry" />
        </mxCell>
        <mxCell id="bWetTXV1wiz5X9XQihTL-7" value="reports_3" style="ellipse;whiteSpace=wrap;html=1;" parent="1" vertex="1">
          <mxGeometry x="180" y="600" width="70" height="40" as="geometry" />
        </mxCell>
        <mxCell id="bWetTXV1wiz5X9XQihTL-8" value="reports_n" style="ellipse;whiteSpace=wrap;html=1;" parent="1" vertex="1">
          <mxGeometry x="180" y="770" width="70" height="40" as="geometry" />
        </mxCell>
        <mxCell id="bWetTXV1wiz5X9XQihTL-32" style="edgeStyle=none;rounded=0;orthogonalLoop=1;jettySize=auto;html=1;exitX=0.5;exitY=0;exitDx=0;exitDy=0;exitPerimeter=0;entryX=0;entryY=0.5;entryDx=0;entryDy=0;" parent="1" source="bWetTXV1wiz5X9XQihTL-14" target="bWetTXV1wiz5X9XQihTL-30" edge="1">
          <mxGeometry relative="1" as="geometry" />
        </mxCell>
        <mxCell id="bWetTXV1wiz5X9XQihTL-14" value="" style="shape=cylinder3;whiteSpace=wrap;html=1;boundedLbl=1;backgroundOutline=1;size=15;rotation=90;" parent="1" vertex="1">
          <mxGeometry x="335" y="295" width="40" height="110" as="geometry" />
        </mxCell>
        <mxCell id="bWetTXV1wiz5X9XQihTL-31" style="edgeStyle=none;rounded=0;orthogonalLoop=1;jettySize=auto;html=1;exitX=0.5;exitY=0;exitDx=0;exitDy=0;exitPerimeter=0;entryX=0;entryY=0.5;entryDx=0;entryDy=0;" parent="1" source="bWetTXV1wiz5X9XQihTL-15" target="bWetTXV1wiz5X9XQihTL-25" edge="1">
          <mxGeometry relative="1" as="geometry" />
        </mxCell>
        <mxCell id="bWetTXV1wiz5X9XQihTL-15" value="" style="shape=cylinder3;whiteSpace=wrap;html=1;boundedLbl=1;backgroundOutline=1;size=15;rotation=90;" parent="1" vertex="1">
          <mxGeometry x="335" y="355" width="40" height="110" as="geometry" />
        </mxCell>
        <mxCell id="bWetTXV1wiz5X9XQihTL-33" style="edgeStyle=none;rounded=0;orthogonalLoop=1;jettySize=auto;html=1;exitX=0.5;exitY=0;exitDx=0;exitDy=0;exitPerimeter=0;entryX=0;entryY=0.5;entryDx=0;entryDy=0;" parent="1" source="bWetTXV1wiz5X9XQihTL-16" target="bWetTXV1wiz5X9XQihTL-30" edge="1">
          <mxGeometry relative="1" as="geometry" />
        </mxCell>
        <mxCell id="bWetTXV1wiz5X9XQihTL-16" value="" style="shape=cylinder3;whiteSpace=wrap;html=1;boundedLbl=1;backgroundOutline=1;size=15;rotation=90;" parent="1" vertex="1">
          <mxGeometry x="335" y="415" width="40" height="110" as="geometry" />
        </mxCell>
        <mxCell id="bWetTXV1wiz5X9XQihTL-34" style="edgeStyle=none;rounded=0;orthogonalLoop=1;jettySize=auto;html=1;exitX=0.5;exitY=0;exitDx=0;exitDy=0;exitPerimeter=0;entryX=0;entryY=0.5;entryDx=0;entryDy=0;" parent="1" source="bWetTXV1wiz5X9XQihTL-17" target="bWetTXV1wiz5X9XQihTL-25" edge="1">
          <mxGeometry relative="1" as="geometry" />
        </mxCell>
        <mxCell id="bWetTXV1wiz5X9XQihTL-17" value="" style="shape=cylinder3;whiteSpace=wrap;html=1;boundedLbl=1;backgroundOutline=1;size=15;rotation=90;" parent="1" vertex="1">
          <mxGeometry x="335" y="475" width="40" height="110" as="geometry" />
        </mxCell>
        <mxCell id="bWetTXV1wiz5X9XQihTL-35" style="edgeStyle=none;rounded=0;orthogonalLoop=1;jettySize=auto;html=1;exitX=0.5;exitY=0;exitDx=0;exitDy=0;exitPerimeter=0;entryX=0;entryY=0.5;entryDx=0;entryDy=0;" parent="1" source="bWetTXV1wiz5X9XQihTL-18" target="bWetTXV1wiz5X9XQihTL-30" edge="1">
          <mxGeometry relative="1" as="geometry" />
        </mxCell>
        <mxCell id="bWetTXV1wiz5X9XQihTL-18" value="" style="shape=cylinder3;whiteSpace=wrap;html=1;boundedLbl=1;backgroundOutline=1;size=15;rotation=90;" parent="1" vertex="1">
          <mxGeometry x="335" y="535" width="40" height="110" as="geometry" />
        </mxCell>
        <mxCell id="bWetTXV1wiz5X9XQihTL-36" style="edgeStyle=none;rounded=0;orthogonalLoop=1;jettySize=auto;html=1;exitX=0.5;exitY=0;exitDx=0;exitDy=0;exitPerimeter=0;entryX=0;entryY=0.5;entryDx=0;entryDy=0;" parent="1" source="bWetTXV1wiz5X9XQihTL-19" target="bWetTXV1wiz5X9XQihTL-25" edge="1">
          <mxGeometry relative="1" as="geometry" />
        </mxCell>
        <mxCell id="bWetTXV1wiz5X9XQihTL-19" value="" style="shape=cylinder3;whiteSpace=wrap;html=1;boundedLbl=1;backgroundOutline=1;size=15;rotation=90;" parent="1" vertex="1">
          <mxGeometry x="335" y="595" width="40" height="110" as="geometry" />
        </mxCell>
        <mxCell id="bWetTXV1wiz5X9XQihTL-37" style="edgeStyle=none;rounded=0;orthogonalLoop=1;jettySize=auto;html=1;exitX=0.5;exitY=0;exitDx=0;exitDy=0;exitPerimeter=0;entryX=0;entryY=0.5;entryDx=0;entryDy=0;" parent="1" source="bWetTXV1wiz5X9XQihTL-20" target="bWetTXV1wiz5X9XQihTL-30" edge="1">
          <mxGeometry relative="1" as="geometry" />
        </mxCell>
        <mxCell id="bWetTXV1wiz5X9XQihTL-20" value="" style="shape=cylinder3;whiteSpace=wrap;html=1;boundedLbl=1;backgroundOutline=1;size=15;rotation=90;" parent="1" vertex="1">
          <mxGeometry x="335" y="705" width="40" height="110" as="geometry" />
        </mxCell>
        <mxCell id="bWetTXV1wiz5X9XQihTL-38" style="edgeStyle=none;rounded=0;orthogonalLoop=1;jettySize=auto;html=1;exitX=0.5;exitY=0;exitDx=0;exitDy=0;exitPerimeter=0;entryX=0;entryY=0.5;entryDx=0;entryDy=0;" parent="1" source="bWetTXV1wiz5X9XQihTL-21" target="bWetTXV1wiz5X9XQihTL-25" edge="1">
          <mxGeometry relative="1" as="geometry" />
        </mxCell>
        <mxCell id="bWetTXV1wiz5X9XQihTL-21" value="" style="shape=cylinder3;whiteSpace=wrap;html=1;boundedLbl=1;backgroundOutline=1;size=15;rotation=90;" parent="1" vertex="1">
          <mxGeometry x="335" y="765" width="40" height="110" as="geometry" />
        </mxCell>
        <mxCell id="bWetTXV1wiz5X9XQihTL-23" style="edgeStyle=none;rounded=0;orthogonalLoop=1;jettySize=auto;html=1;exitX=1;exitY=0.5;exitDx=0;exitDy=0;entryX=0.5;entryY=1;entryDx=0;entryDy=0;entryPerimeter=0;" parent="1" source="bWetTXV1wiz5X9XQihTL-5" target="bWetTXV1wiz5X9XQihTL-14" edge="1">
          <mxGeometry relative="1" as="geometry" />
        </mxCell>
        <mxCell id="bWetTXV1wiz5X9XQihTL-24" style="edgeStyle=none;rounded=0;orthogonalLoop=1;jettySize=auto;html=1;exitX=1;exitY=0.5;exitDx=0;exitDy=0;entryX=0.5;entryY=1;entryDx=0;entryDy=0;entryPerimeter=0;" parent="1" source="bWetTXV1wiz5X9XQihTL-5" target="bWetTXV1wiz5X9XQihTL-15" edge="1">
          <mxGeometry relative="1" as="geometry" />
        </mxCell>
        <mxCell id="bWetTXV1wiz5X9XQihTL-25" value="Web Backend" style="rounded=0;whiteSpace=wrap;html=1;" parent="1" vertex="1">
          <mxGeometry x="600" y="600" width="100" height="50" as="geometry" />
        </mxCell>
        <mxCell id="bWetTXV1wiz5X9XQihTL-30" value="CCU" style="rounded=0;whiteSpace=wrap;html=1;" parent="1" vertex="1">
          <mxGeometry x="600" y="460" width="100" height="50" as="geometry" />
        </mxCell>
        <mxCell id="bWetTXV1wiz5X9XQihTL-39" style="edgeStyle=none;rounded=0;orthogonalLoop=1;jettySize=auto;html=1;exitX=1;exitY=0.5;exitDx=0;exitDy=0;entryX=0.5;entryY=1;entryDx=0;entryDy=0;entryPerimeter=0;" parent="1" source="bWetTXV1wiz5X9XQihTL-6" target="bWetTXV1wiz5X9XQihTL-16" edge="1">
          <mxGeometry relative="1" as="geometry" />
        </mxCell>
        <mxCell id="bWetTXV1wiz5X9XQihTL-40" style="edgeStyle=none;rounded=0;orthogonalLoop=1;jettySize=auto;html=1;exitX=1;exitY=0.5;exitDx=0;exitDy=0;entryX=0.5;entryY=1;entryDx=0;entryDy=0;entryPerimeter=0;" parent="1" source="bWetTXV1wiz5X9XQihTL-6" target="bWetTXV1wiz5X9XQihTL-17" edge="1">
          <mxGeometry relative="1" as="geometry" />
        </mxCell>
        <mxCell id="bWetTXV1wiz5X9XQihTL-41" style="edgeStyle=none;rounded=0;orthogonalLoop=1;jettySize=auto;html=1;exitX=1;exitY=0.5;exitDx=0;exitDy=0;entryX=0.5;entryY=1;entryDx=0;entryDy=0;entryPerimeter=0;" parent="1" source="bWetTXV1wiz5X9XQihTL-7" target="bWetTXV1wiz5X9XQihTL-18" edge="1">
          <mxGeometry relative="1" as="geometry" />
        </mxCell>
        <mxCell id="bWetTXV1wiz5X9XQihTL-42" style="edgeStyle=none;rounded=0;orthogonalLoop=1;jettySize=auto;html=1;exitX=1;exitY=0.5;exitDx=0;exitDy=0;entryX=0.5;entryY=1;entryDx=0;entryDy=0;entryPerimeter=0;" parent="1" source="bWetTXV1wiz5X9XQihTL-7" target="bWetTXV1wiz5X9XQihTL-19" edge="1">
          <mxGeometry relative="1" as="geometry" />
        </mxCell>
        <mxCell id="bWetTXV1wiz5X9XQihTL-43" style="edgeStyle=none;rounded=0;orthogonalLoop=1;jettySize=auto;html=1;exitX=1;exitY=0.5;exitDx=0;exitDy=0;entryX=0.5;entryY=1;entryDx=0;entryDy=0;entryPerimeter=0;" parent="1" source="bWetTXV1wiz5X9XQihTL-8" target="bWetTXV1wiz5X9XQihTL-20" edge="1">
          <mxGeometry relative="1" as="geometry" />
        </mxCell>
        <mxCell id="bWetTXV1wiz5X9XQihTL-44" style="edgeStyle=none;rounded=0;orthogonalLoop=1;jettySize=auto;html=1;exitX=1;exitY=0.5;exitDx=0;exitDy=0;entryX=0.5;entryY=1;entryDx=0;entryDy=0;entryPerimeter=0;" parent="1" source="bWetTXV1wiz5X9XQihTL-8" target="bWetTXV1wiz5X9XQihTL-21" edge="1">
          <mxGeometry relative="1" as="geometry" />
        </mxCell>
        <mxCell id="bWetTXV1wiz5X9XQihTL-45" value="1_ccu" style="text;html=1;align=center;verticalAlign=middle;resizable=0;points=[];autosize=1;strokeColor=none;fillColor=none;" parent="1" vertex="1">
          <mxGeometry x="310" y="335" width="60" height="30" as="geometry" />
        </mxCell>
        <mxCell id="bWetTXV1wiz5X9XQihTL-46" value="2_ccu" style="text;html=1;align=center;verticalAlign=middle;resizable=0;points=[];autosize=1;strokeColor=none;fillColor=none;" parent="1" vertex="1">
          <mxGeometry x="310" y="455" width="60" height="30" as="geometry" />
        </mxCell>
        <mxCell id="bWetTXV1wiz5X9XQihTL-47" value="3_ccu" style="text;html=1;align=center;verticalAlign=middle;resizable=0;points=[];autosize=1;strokeColor=none;fillColor=none;" parent="1" vertex="1">
          <mxGeometry x="310" y="575" width="60" height="30" as="geometry" />
        </mxCell>
        <mxCell id="bWetTXV1wiz5X9XQihTL-48" value="n_ccu" style="text;html=1;align=center;verticalAlign=middle;resizable=0;points=[];autosize=1;strokeColor=none;fillColor=none;" parent="1" vertex="1">
          <mxGeometry x="310" y="745" width="60" height="30" as="geometry" />
        </mxCell>
        <mxCell id="bWetTXV1wiz5X9XQihTL-50" value="1_backend" style="text;html=1;align=center;verticalAlign=middle;resizable=0;points=[];autosize=1;strokeColor=none;fillColor=none;" parent="1" vertex="1">
          <mxGeometry x="300" y="395" width="80" height="30" as="geometry" />
        </mxCell>
        <mxCell id="bWetTXV1wiz5X9XQihTL-52" value="2_backend" style="text;html=1;align=center;verticalAlign=middle;resizable=0;points=[];autosize=1;strokeColor=none;fillColor=none;" parent="1" vertex="1">
          <mxGeometry x="300" y="515" width="80" height="30" as="geometry" />
        </mxCell>
        <mxCell id="bWetTXV1wiz5X9XQihTL-53" value="3_backend" style="text;html=1;align=center;verticalAlign=middle;resizable=0;points=[];autosize=1;strokeColor=none;fillColor=none;" parent="1" vertex="1">
          <mxGeometry x="300" y="635" width="80" height="30" as="geometry" />
        </mxCell>
        <mxCell id="bWetTXV1wiz5X9XQihTL-54" value="n_backend" style="text;html=1;align=center;verticalAlign=middle;resizable=0;points=[];autosize=1;strokeColor=none;fillColor=none;" parent="1" vertex="1">
          <mxGeometry x="300" y="805" width="80" height="30" as="geometry" />
        </mxCell>
        <mxCell id="bWetTXV1wiz5X9XQihTL-55" value="" style="endArrow=none;dashed=1;html=1;dashPattern=1 3;strokeWidth=2;rounded=0;" parent="1" edge="1">
          <mxGeometry width="50" height="50" relative="1" as="geometry">
            <mxPoint x="350" y="720" as="sourcePoint" />
            <mxPoint x="350" y="680" as="targetPoint" />
          </mxGeometry>
        </mxCell>
        <mxCell id="bWetTXV1wiz5X9XQihTL-56" value="" style="endArrow=none;dashed=1;html=1;dashPattern=1 3;strokeWidth=2;rounded=0;" parent="1" edge="1">
          <mxGeometry width="50" height="50" relative="1" as="geometry">
            <mxPoint x="80" y="760" as="sourcePoint" />
            <mxPoint x="80" y="650" as="targetPoint" />
          </mxGeometry>
        </mxCell>
      </root>
    </mxGraphModel>
  </diagram>
</mxfile>
